<?xml version="1.0" encoding="UTF-8" standalone="no"?>
<!-- Generator: Adobe Illustrator 18.1.1, SVG Export Plug-In . SVG Version: 6.00 Build 0)  -->

<svg
   xmlns:dc="http://purl.org/dc/elements/1.1/"
   xmlns:cc="http://creativecommons.org/ns#"
   xmlns:rdf="http://www.w3.org/1999/02/22-rdf-syntax-ns#"
   xmlns:svg="http://www.w3.org/2000/svg"
   xmlns="http://www.w3.org/2000/svg"
   xmlns:sodipodi="http://sodipodi.sourceforge.net/DTD/sodipodi-0.dtd"
   xmlns:inkscape="http://www.inkscape.org/namespaces/inkscape"
   version="1.1"
   id="Capa_1"
   x="0px"
   y="0px"
   viewBox="0 0 19.342 19.342"
   style="enable-background:new 0 0 19.342 19.342;"
   xml:space="preserve"
   sodipodi:docname="dustbin.svg"
   inkscape:version="0.92.5 (2060ec1f9f, 2020-04-08)"><metadata
   id="metadata922"><rdf:RDF><cc:Work
       rdf:about=""><dc:format>image/svg+xml</dc:format><dc:type
         rdf:resource="http://purl.org/dc/dcmitype/StillImage" /><dc:title></dc:title></cc:Work></rdf:RDF></metadata><defs
   id="defs920" /><sodipodi:namedview
   pagecolor="#ffffff"
   bordercolor="#666666"
   borderopacity="1"
   objecttolerance="10"
   gridtolerance="10"
   guidetolerance="10"
   inkscape:pageopacity="0"
   inkscape:pageshadow="2"
   inkscape:window-width="1920"
   inkscape:window-height="1056"
   id="namedview918"
   showgrid="false"
   inkscape:pagecheckerboard="true"
   inkscape:zoom="31.732433"
   inkscape:cx="6.5740479"
   inkscape:cy="10.263712"
   inkscape:window-x="0"
   inkscape:window-y="0"
   inkscape:window-maximized="1"
   inkscape:current-layer="g883" />
<g
   id="g885">
	<g
   id="g883">
		<path
   style="fill:#ffffff;fill-opacity:1"
   d="M2.833,4.491c0,0,0.513,0.491,0.513,0.776v12.568c0,0.832,0.736,1.507,1.645,1.507h9.362    c0.908,0,1.644-0.675,1.644-1.507V5.268c0-0.286,0.515-0.776,0.515-0.776V2.969H2.833V4.491z M12.36,6.23h1.223v9.705H12.36V6.23z     M9.086,6.23h1.22v9.705h-1.22V6.23z M6.137,6.23h1.221v9.705H6.137V6.23z"
   id="path879" />
		<path
   style="fill:#ffffff;fill-opacity:1"
   d="M17.108,1.711h-3.791C13.128,0.74,12.201,0,11.087,0H8.257C7.143,0,6.216,0.74,6.027,1.711H2.235    v0.93h14.873V1.711z M7.297,1.711c0.156-0.344,0.528-0.586,0.96-0.586h2.829c0.433,0,0.804,0.243,0.961,0.586H7.297z"
   id="path881" />
	</g>
</g>
<g
   id="g887">
</g>
<g
   id="g889">
</g>
<g
   id="g891">
</g>
<g
   id="g893">
</g>
<g
   id="g895">
</g>
<g
   id="g897">
</g>
<g
   id="g899">
</g>
<g
   id="g901">
</g>
<g
   id="g903">
</g>
<g
   id="g905">
</g>
<g
   id="g907">
</g>
<g
   id="g909">
</g>
<g
   id="g911">
</g>
<g
   id="g913">
</g>
<g
   id="g915">
</g>
</svg>